# xmcd CD database file
#
# Track frame offsets:
#	150
#	24352
#	52111
#	87697
#	116786
#	158640
#	199444
#	240924
#	265843
#	315155
#
# Disc length: 4795 seconds
#
# Revision: 0
# Processed by: cddbd v1.5.1PL0 Copyright (c) Steve Scherf et al.
# Submitted via: CDex 1.51
#
DISCID=8012b90a
DTITLE=Dizzy Gillespie - Roy Eldridge - Complete Trumpet Kings Battle
DYEAR=1954
DGENRE=Jazz
TTITLE0=Sometimes I'm Happy
TTITLE1=Algo Bueno
TTITLE2=Trumpet Blues
TTITLE3=The Heat's On
TTITLE4=The Ballad Medley
TTITLE5=Blue Moon
TTITLE6=I've Found A New Baby
TTITLE7=Pretty Eyed Baby
TTITLE8=I Can't Get Started
TTITLE9=Limehouse Blues
EXTD=YEAR: 1954
EXTT0=
EXTT1=
EXTT2=
EXTT3=
EXTT4=
EXTT5=
EXTT6=
EXTT7=
EXTT8=
EXTT9=
PLAYORDER=
